<svg width="64" height="64" viewBox="0 0 64 64" fill="none" xmlns="http://www.w3.org/2000/svg">
<circle cx="32" cy="32" r="32" fill="#F2F4F7"/>
<g clip-path="url(#clip0_624_3331)">
<path fill-rule="evenodd" clip-rule="evenodd" d="M26.6658 12C24.4547 12.0016 22.6651 13.7925 22.6668 15.9992C22.6651 18.2059 24.4563 19.9967 26.6674 19.9984H30.6681V16.0008C30.6697 13.7941 28.8786 12.0033 26.6658 12C26.6674 12 26.6674 12 26.6658 12V12ZM26.6658 22.6667H16.0007C13.7895 22.6683 11.9984 24.4591 12 26.6659C11.9967 28.8726 13.7879 30.6634 15.999 30.6667H26.6658C28.8769 30.665 30.6681 28.8742 30.6665 26.6675C30.6681 24.4591 28.8769 22.6683 26.6658 22.6667Z" fill="#36C5F0"/>
<path fill-rule="evenodd" clip-rule="evenodd" d="M52.0006 26.6659C52.0022 24.4591 50.211 22.6683 47.9999 22.6667C45.7887 22.6683 43.9976 24.4591 43.9992 26.6659V30.6667H47.9999C50.211 30.665 52.0022 28.8742 52.0006 26.6659ZM41.3337 26.6659V15.9992C41.3353 13.7941 39.5458 12.0033 37.3347 12C35.1235 12.0016 33.3324 13.7925 33.334 15.9992V26.6659C33.3307 28.8726 35.1219 30.6634 37.333 30.6667C39.5442 30.665 41.3353 28.8742 41.3337 26.6659Z" fill="#2EB67D"/>
<path fill-rule="evenodd" clip-rule="evenodd" d="M37.3327 52C39.5439 51.9983 41.335 50.2075 41.3334 48.0007C41.335 45.794 39.5439 44.0032 37.3327 44.0015H33.332V48.0007C33.3304 50.2059 35.1216 51.9967 37.3327 52ZM37.3327 41.3316H47.9996C50.2107 41.33 52.0019 39.5391 52.0002 37.3324C52.0035 35.1256 50.2123 33.3348 48.0012 33.3315H37.3343C35.1232 33.3332 33.332 35.124 33.3337 37.3308C33.332 39.5391 35.1216 41.33 37.3327 41.3316Z" fill="#ECB22E"/>
<path fill-rule="evenodd" clip-rule="evenodd" d="M12 37.3322C11.9984 39.539 13.7895 41.3298 16.0007 41.3314C18.2118 41.3298 20.0029 39.539 20.0013 37.3322V33.333H16.0007C13.7895 33.3346 11.9984 35.1255 12 37.3322ZM22.6668 37.3322V47.999C22.6635 50.2057 24.4546 51.9965 26.6658 51.9998C28.8769 51.9982 30.6681 50.2073 30.6664 48.0006V37.3355C30.6697 35.1287 28.8786 33.3379 26.6674 33.3346C24.4546 33.3346 22.6651 35.1255 22.6668 37.3322C22.6668 37.3322 22.6668 37.3338 22.6668 37.3322Z" fill="#E01E5A"/>
</g>
<defs>
<clipPath id="clip0_624_3331">
<rect width="40" height="40" fill="white" transform="translate(12 12)"/>
</clipPath>
</defs>
</svg>
