<svg width="64" height="64" viewBox="0 0 64 64" fill="none" xmlns="http://www.w3.org/2000/svg">
<circle cx="32" cy="32" r="32" fill="#F2F4F7"/>
<g clip-path="url(#clip0_624_3402)">
<path d="M14.7273 47.602H21.0909V32.1473L12 25.3291V44.8748C12 46.3816 13.2205 47.6021 14.7273 47.6021V47.602Z" fill="#4285F4"/>
<path d="M42.9092 47.6018H49.2728C50.7796 47.6018 52.0001 46.3814 52.0001 44.8746V25.3291L42.9092 32.1473V47.6018Z" fill="#34A853"/>
<path d="M42.9092 20.3288V32.147L52.0001 25.3288V21.6925C52.0001 18.322 48.1524 16.397 45.4546 18.4198L42.9092 20.3288Z" fill="#FBBC04"/>
<path fill-rule="evenodd" clip-rule="evenodd" d="M21.0908 32.1473V20.3291L31.9999 28.511L42.9089 20.3291V32.1473L31.9999 40.3291L21.0908 32.1473Z" fill="#EA4335"/>
<path d="M12 21.6925V25.3288L21.0909 32.147V20.3288L18.5455 18.4198C15.8477 16.397 12 18.322 12 21.6923V21.6925Z" fill="#C5221F"/>
</g>
<defs>
<clipPath id="clip0_624_3402">
<rect width="40" height="40" fill="white" transform="translate(12 12)"/>
</clipPath>
</defs>
</svg>
