<svg width="64" height="64" viewBox="0 0 64 64" fill="none" xmlns="http://www.w3.org/2000/svg">
<circle cx="32" cy="32" r="32" fill="#FF4A00"/>
<path d="M36.9998 32.0088C37.0005 33.451 36.7404 34.8816 36.2319 36.2313C34.8817 36.7397 33.4509 37.0002 32.0081 37.0005H31.9912C30.5056 36.9986 29.0822 36.727 27.7687 36.2319C27.26 34.882 26.9995 33.4513 27 32.0088V31.9912C26.9993 30.5492 27.2592 29.119 27.7672 27.7694C29.1173 27.26 30.5484 26.9994 31.9914 27H32.0083C33.4511 26.9993 34.8821 27.2599 36.232 27.7692C36.7406 29.1187 37.0007 30.549 37 31.9911V32.0086L36.9998 32.0088ZM51.7222 28.6667H40.0478L48.3023 20.4116C47.6544 19.5014 46.9317 18.647 46.1417 17.857V17.8564C45.3517 17.0673 44.4974 16.3453 43.5878 15.6977L35.3327 23.9528V12.2784C34.2347 12.0937 33.1234 12.0006 32.01 12L31.9894 12C30.8569 12.0006 29.7477 12.0969 28.6667 12.2784V23.9528L20.4116 15.6977C19.5018 16.3451 18.6479 17.0677 17.8589 17.8578L17.8545 17.8609C17.0659 18.6499 16.3442 19.503 15.6969 20.4116L23.9527 28.6667H12.2784C12.2784 28.6667 12 30.8594 12 31.9931V32.0069C12 33.1406 12.0961 34.2517 12.2784 35.3333H23.9528L15.697 43.5884C16.9957 45.4109 18.5891 47.0043 20.4116 48.303L28.6667 40.0472V51.7222C29.7634 51.906 30.8735 51.9989 31.9855 52H32.0138C33.1258 51.999 34.2358 51.9061 35.3325 51.7222V40.0472L43.5884 48.303C44.4979 47.6551 45.3519 46.9329 46.1417 46.1436L46.1436 46.1417C46.9325 45.3518 47.6546 44.4977 48.3023 43.5884L40.0466 35.3333H51.7222C51.9039 34.2536 51.9987 33.1458 52 32.0145V31.9855C51.9987 30.8542 51.9039 29.7464 51.7222 28.6667Z" fill="white"/>
</svg>
