<svg width="64" height="64" viewBox="0 0 64 64" fill="none" xmlns="http://www.w3.org/2000/svg">
<circle cx="32" cy="32" r="32" fill="#121722"/>
<path d="M46.6667 33.9919C46.6629 34.343 46.5208 34.6785 46.2711 34.9254C46.0215 35.1724 45.6845 35.3109 45.3334 35.3109C44.9822 35.3109 44.6452 35.1724 44.3956 34.9254C44.146 34.6785 44.0038 34.343 44 33.9919V22C44.0038 21.6489 44.146 21.3134 44.3956 21.0665C44.6452 20.8195 44.9822 20.681 45.3334 20.681C45.6845 20.681 46.0215 20.8195 46.2711 21.0665C46.5208 21.3134 46.6629 21.6489 46.6667 22V33.9919ZM46.2014 42.3377C45.9953 42.5141 41.0561 46.6587 32 46.6587C22.9441 46.6587 18.005 42.5139 17.7989 42.3375C17.5305 42.1073 17.3644 41.7799 17.3373 41.4273C17.3102 41.0748 17.4243 40.7259 17.6544 40.4573C17.884 40.1893 18.2106 40.0232 18.5625 39.9956C18.9143 39.968 19.2628 40.0811 19.5314 40.3102C19.6097 40.3758 24.0203 43.9919 32.0002 43.9919C40.0802 43.9919 44.4225 40.3497 44.4655 40.313C45.0234 39.8337 45.8667 39.8981 46.3456 40.4575C46.5758 40.726 46.6899 41.0749 46.6629 41.4274C46.6358 41.78 46.4698 42.1074 46.2014 42.3377ZM17.3333 22C17.3371 21.6489 17.4792 21.3134 17.7289 21.0665C17.9785 20.8195 18.3155 20.681 18.6666 20.681C19.0178 20.681 19.3548 20.8195 19.6044 21.0665C19.854 21.3134 19.9962 21.6489 20 22V33.9919C19.9962 34.343 19.854 34.6785 19.6044 34.9254C19.3548 35.1724 19.0178 35.3109 18.6666 35.3109C18.3155 35.3109 17.9785 35.1724 17.7289 34.9254C17.4792 34.6785 17.3371 34.343 17.3333 33.9919V22ZM24.0002 19.3333C24.0055 18.9832 24.1483 18.6493 24.3978 18.4036C24.6473 18.158 24.9833 18.0203 25.3334 18.0203C25.6836 18.0203 26.0196 18.158 26.2691 18.4036C26.5185 18.6493 26.6614 18.9832 26.6667 19.3333V37.1459C26.6614 37.496 26.5185 37.8299 26.2691 38.0756C26.0196 38.3213 25.6836 38.459 25.3334 38.459C24.9833 38.459 24.6473 38.3213 24.3978 38.0756C24.1483 37.8299 24.0055 37.496 24.0002 37.1459V19.3334V19.3333ZM30.6667 18.6586C30.6667 18.4835 30.7012 18.3101 30.7682 18.1483C30.8352 17.9866 30.9334 17.8396 31.0572 17.7158C31.181 17.592 31.328 17.4938 31.4897 17.4268C31.6515 17.3598 31.8249 17.3253 32 17.3253C32.1751 17.3253 32.3485 17.3597 32.5103 17.4267C32.6721 17.4937 32.8191 17.5919 32.9429 17.7157C33.0667 17.8395 33.165 17.9865 33.232 18.1483C33.299 18.3101 33.3335 18.4835 33.3334 18.6586V37.9919C33.3296 38.343 33.1875 38.6785 32.9378 38.9254C32.6882 39.1724 32.3512 39.3109 32.0001 39.3109C31.6489 39.3109 31.312 39.1724 31.0623 38.9254C30.8127 38.6785 30.6705 38.343 30.6667 37.9919V18.6586ZM37.3334 19.3333C37.3388 18.9832 37.4816 18.6493 37.7311 18.4036C37.9805 18.158 38.3166 18.0203 38.6667 18.0203C39.0168 18.0203 39.3529 18.158 39.6024 18.4036C39.8518 18.6493 39.9946 18.9832 40 19.3333V37.1459C39.9946 37.496 39.8518 37.8299 39.6024 38.0756C39.3529 38.3213 39.0168 38.459 38.6667 38.459C38.3166 38.459 37.9805 38.3213 37.7311 38.0756C37.4816 37.8299 37.3388 37.496 37.3334 37.1459V19.3334V19.3333ZM47 12H17C14.2386 12 12 14.2386 12 17V47C12 49.7612 14.2386 52 17 52H47C49.7614 52 52 49.7612 52 47V17C52 14.2386 49.7614 12 47 12Z" fill="white"/>
</svg>
