<svg width="32" height="32" viewBox="0 0 32 32" fill="none" xmlns="http://www.w3.org/2000/svg">
<path d="M23.266 30.3332C21.7593 30.3332 20.1727 29.9732 18.5327 29.2798C16.9327 28.5998 15.3194 27.6665 13.746 26.5332C12.186 25.3865 10.6793 24.1065 9.25268 22.7065C7.83935 21.2798 6.55935 19.7732 5.42602 18.2265C4.27935 16.6265 3.35935 15.0265 2.70602 13.4798C2.01268 11.8265 1.66602 10.2265 1.66602 8.71984C1.66602 7.67984 1.85268 6.69317 2.21268 5.77317C2.58602 4.8265 3.18602 3.9465 3.99935 3.1865C5.02602 2.17317 6.19935 1.6665 7.45268 1.6665C7.97268 1.6665 8.50602 1.7865 8.95935 1.99984C9.47935 2.23984 9.91935 2.59984 10.2393 3.07984L13.3327 7.43984C13.6127 7.8265 13.826 8.19984 13.9727 8.57317C14.146 8.97317 14.2393 9.37317 14.2393 9.75984C14.2393 10.2665 14.0927 10.7598 13.8127 11.2265C13.6127 11.5865 13.306 11.9732 12.9193 12.3598L12.0127 13.3065C12.026 13.3465 12.0393 13.3732 12.0527 13.3998C12.2127 13.6798 12.5327 14.1598 13.146 14.8798C13.7993 15.6265 14.4127 16.3065 15.026 16.9332C15.8127 17.7065 16.466 18.3198 17.0793 18.8265C17.8393 19.4665 18.3327 19.7865 18.626 19.9332L18.5993 19.9998L19.5727 19.0398C19.986 18.6265 20.386 18.3198 20.7727 18.1198C21.506 17.6665 22.4394 17.5865 23.3727 17.9732C23.7194 18.1198 24.0927 18.3198 24.4927 18.5998L28.9193 21.7465C29.4127 22.0798 29.7727 22.5065 29.986 23.0132C30.186 23.5198 30.2793 23.9865 30.2793 24.4532C30.2793 25.0932 30.1327 25.7332 29.8527 26.3332C29.5727 26.9332 29.226 27.4532 28.786 27.9332C28.026 28.7732 27.1994 29.3732 26.2393 29.7598C25.3193 30.1332 24.3194 30.3332 23.266 30.3332ZM7.45268 3.6665C6.71935 3.6665 6.03935 3.9865 5.38602 4.6265C4.77268 5.19984 4.34602 5.8265 4.07935 6.5065C3.79935 7.19984 3.66602 7.93317 3.66602 8.71984C3.66602 9.95984 3.95935 11.3065 4.54602 12.6932C5.14602 14.1065 5.98602 15.5732 7.05268 17.0398C8.11935 18.5065 9.33268 19.9332 10.666 21.2798C11.9993 22.5998 13.4393 23.8265 14.9193 24.9065C16.3593 25.9598 17.8393 26.8132 19.306 27.4265C21.586 28.3998 23.7194 28.6265 25.4794 27.8932C26.1594 27.6132 26.7593 27.1865 27.306 26.5732C27.6127 26.2398 27.8527 25.8798 28.0527 25.4532C28.2127 25.1198 28.2927 24.7732 28.2927 24.4265C28.2927 24.2132 28.2527 23.9998 28.146 23.7598C28.106 23.6798 28.026 23.5332 27.7727 23.3598L23.346 20.2132C23.0793 20.0265 22.8393 19.8932 22.6127 19.7998C22.3193 19.6798 22.1993 19.5598 21.746 19.8398C21.4793 19.9732 21.2393 20.1732 20.9727 20.4398L19.9594 21.4398C19.4394 21.9465 18.6394 22.0665 18.026 21.8398L17.666 21.6798C17.1193 21.3865 16.4793 20.9332 15.7727 20.3332C15.1327 19.7865 14.4393 19.1465 13.5993 18.3198C12.946 17.6532 12.2927 16.9465 11.6127 16.1598C10.986 15.4265 10.5327 14.7998 10.2527 14.2798L10.0927 13.8798C10.0127 13.5732 9.98602 13.3998 9.98602 13.2132C9.98602 12.7332 10.1593 12.3065 10.4927 11.9732L11.4927 10.9332C11.7593 10.6665 11.9593 10.4132 12.0927 10.1865C12.1993 10.0132 12.2393 9.8665 12.2393 9.73317C12.2393 9.6265 12.1993 9.4665 12.1327 9.3065C12.0393 9.09317 11.8927 8.85317 11.706 8.59984L8.61268 4.2265C8.47935 4.03984 8.31935 3.9065 8.11935 3.81317C7.90602 3.71984 7.67935 3.6665 7.45268 3.6665ZM18.5993 20.0132L18.386 20.9198L18.746 19.9865C18.6793 19.9732 18.626 19.9865 18.5993 20.0132Z" fill="#121722"/>
</svg>
