<svg width="158" height="32" viewBox="0 0 158 32" fill="none" xmlns="http://www.w3.org/2000/svg">
<mask id="mask0_1061_357" style="mask-type:alpha" maskUnits="userSpaceOnUse" x="0" y="0" width="158" height="32">
<rect width="158" height="32" fill="white"/>
</mask>
<g mask="url(#mask0_1061_357)">
<mask id="mask1_1061_357" style="mask-type:alpha" maskUnits="userSpaceOnUse" x="-675" y="0" width="1280" height="32">
<path d="M41.8984 22.3669H52.4772V19.5115H45.3924V5.98633H41.8984V22.3669Z" fill="#11062D"/>
<path d="M59.6451 22.6072C63.4054 22.6072 65.7455 20.0557 65.7455 16.2726C65.7455 12.4653 63.4054 9.92188 59.6451 9.92188C55.8851 9.92188 53.5449 12.4653 53.5449 16.2726C53.5449 20.0557 55.8851 22.6072 59.6451 22.6072ZM59.6612 19.9678C57.9263 19.9678 57.0389 18.3921 57.0389 16.2486C57.0389 14.105 57.9263 12.5213 59.6612 12.5213C61.3638 12.5213 62.2516 14.105 62.2516 16.2486C62.2516 18.3921 61.3638 19.9678 59.6612 19.9678Z" fill="#11062D"/>
<path d="M72.8835 27.2302C76.426 27.2302 78.9435 25.6306 78.9435 22.4872V10.0819H75.5304V12.1454H75.4013C74.9412 11.1456 73.9325 9.92188 71.8588 9.92188C69.1396 9.92188 66.8398 12.0174 66.8398 16.2005C66.8398 20.2877 69.0749 22.1913 71.867 22.1913C73.8438 22.1913 74.9494 21.2075 75.4013 20.1917H75.5465V22.4392C75.5465 24.1269 74.457 24.7828 72.9643 24.7828C71.4472 24.7828 70.6806 24.1269 70.3982 23.3831L67.2192 23.807C67.6307 25.7426 69.5429 27.2302 72.8835 27.2302ZM72.9564 19.6318C71.2698 19.6318 70.3499 18.3041 70.3499 16.1846C70.3499 14.097 71.2538 12.6333 72.9564 12.6333C74.6265 12.6333 75.5626 14.033 75.5626 16.1846C75.5626 18.3521 74.6104 19.6318 72.9564 19.6318Z" fill="#11062D"/>
<path d="M86.5962 22.6072C90.3565 22.6072 92.6967 20.0557 92.6967 16.2726C92.6967 12.4653 90.3565 9.92188 86.5962 9.92188C82.8359 9.92188 80.4961 12.4653 80.4961 16.2726C80.4961 20.0557 82.8359 22.6072 86.5962 22.6072ZM86.6123 19.9678C84.8775 19.9678 83.99 18.3921 83.99 16.2486C83.99 14.105 84.8775 12.5213 86.6123 12.5213C88.315 12.5213 89.2027 14.105 89.2027 16.2486C89.2027 18.3921 88.315 19.9678 86.6123 19.9678Z" fill="#11062D"/>
<path d="M94.2521 22.3671H97.6896V10.0817H94.2521V22.3671ZM95.9791 8.49806C97.0038 8.49806 97.843 7.72223 97.843 6.77043C97.843 5.82661 97.0038 5.05078 95.9791 5.05078C94.9622 5.05078 94.123 5.82661 94.123 6.77043C94.123 7.72223 94.9622 8.49806 95.9791 8.49806Z" fill="#11062D"/>
<path d="M99.7598 26.9743H103.197V20.3997H103.302C103.778 21.4235 104.819 22.5672 106.82 22.5672C109.645 22.5672 111.847 20.3517 111.847 16.2406C111.847 12.0174 109.548 9.92188 106.828 9.92188C104.755 9.92188 103.762 11.1456 103.302 12.1454H103.149V10.0819H99.7598V26.9743ZM103.125 16.2246C103.125 14.033 104.061 12.6333 105.731 12.6333C107.434 12.6333 108.337 14.097 108.337 16.2246C108.337 18.3681 107.417 19.8558 105.731 19.8558C104.077 19.8558 103.125 18.4161 103.125 16.2246Z" fill="#11062D"/>
<path d="M123.771 13.5851C123.465 11.3216 121.625 9.92188 118.494 9.92188C115.323 9.92188 113.233 11.3776 113.241 13.7451C113.233 15.5847 114.403 16.7765 116.824 17.2563L118.97 17.6803C120.051 17.8962 120.544 18.2881 120.56 18.904C120.544 19.6318 119.745 20.1517 118.543 20.1517C117.316 20.1517 116.501 19.6318 116.291 18.6321L112.91 18.808C113.233 21.1595 115.25 22.6072 118.534 22.6072C121.746 22.6072 124.046 20.9835 124.054 18.5601C124.046 16.7844 122.876 15.7207 120.471 15.2328L118.228 14.7849C117.074 14.5369 116.646 14.145 116.654 13.5531C116.646 12.8173 117.485 12.3374 118.55 12.3374C119.745 12.3374 120.455 12.9852 120.624 13.7771L123.771 13.5851Z" fill="#11062D"/>
<path d="M133.483 17.1365C133.492 18.7842 132.354 19.648 131.119 19.648C129.82 19.648 128.981 18.7442 128.973 17.2965V10.082H125.535V17.9044C125.543 20.7758 127.238 22.5274 129.731 22.5274C131.595 22.5274 132.935 21.5756 133.492 20.1359H133.621V22.3674H136.921V10.082H133.483V17.1365Z" fill="#11062D"/>
<path d="M138.988 22.3673H142.426V14.9928C142.426 13.6331 143.297 12.7293 144.443 12.7293C145.573 12.7293 146.332 13.4971 146.332 14.7049V22.3673H149.664V14.8649C149.664 13.5931 150.398 12.7293 151.649 12.7293C152.746 12.7293 153.569 13.4092 153.569 14.7769V22.3673H156.999V14.105C156.999 11.4416 155.401 9.92188 153.093 9.92188C151.278 9.92188 149.866 10.8417 149.357 12.2494H149.228C148.833 10.8257 147.566 9.92188 145.864 9.92188C144.193 9.92188 142.926 10.8017 142.41 12.2494H142.264V10.0819H138.988V22.3673Z" fill="#11062D"/>
<path fill-rule="evenodd" clip-rule="evenodd" d="M9.36658 2.51562L24.3666 28.4823L22.6348 29.4827L7.63477 3.51603L9.36658 2.51562Z" fill="#0D0E10"/>
<path fill-rule="evenodd" clip-rule="evenodd" d="M15 31V1H17V31H15Z" fill="#0D0E10"/>
<path fill-rule="evenodd" clip-rule="evenodd" d="M7.63477 28.4823L22.6348 2.51562L24.3666 3.51603L9.36658 29.4827L7.63477 28.4823Z" fill="#0D0E10"/>
<path fill-rule="evenodd" clip-rule="evenodd" d="M2.51562 22.6348L28.4823 7.63477L29.4827 9.36658L3.51603 24.3666L2.51562 22.6348Z" fill="#0D0E10"/>
<path fill-rule="evenodd" clip-rule="evenodd" d="M1 15H31V17H1V15Z" fill="#0D0E10"/>
<path fill-rule="evenodd" clip-rule="evenodd" d="M3.51603 7.63477L29.4827 22.6348L28.4823 24.3666L2.51562 9.36658L3.51603 7.63477Z" fill="#0D0E10"/>
<path d="M41.8984 22.3669H52.4772V19.5115H45.3924V5.98633H41.8984V22.3669Z" fill="#0C2D06"/>
<path d="M59.6451 22.6072C63.4054 22.6072 65.7455 20.0557 65.7455 16.2726C65.7455 12.4653 63.4054 9.92188 59.6451 9.92188C55.8851 9.92188 53.5449 12.4653 53.5449 16.2726C53.5449 20.0557 55.8851 22.6072 59.6451 22.6072ZM59.6612 19.9678C57.9263 19.9678 57.0389 18.3921 57.0389 16.2486C57.0389 14.105 57.9263 12.5213 59.6612 12.5213C61.3638 12.5213 62.2516 14.105 62.2516 16.2486C62.2516 18.3921 61.3638 19.9678 59.6612 19.9678Z" fill="#0C2D06"/>
<path d="M72.8835 27.2302C76.426 27.2302 78.9435 25.6306 78.9435 22.4872V10.0819H75.5304V12.1454H75.4013C74.9412 11.1456 73.9325 9.92188 71.8588 9.92188C69.1396 9.92188 66.8398 12.0174 66.8398 16.2005C66.8398 20.2877 69.0749 22.1913 71.867 22.1913C73.8438 22.1913 74.9494 21.2075 75.4013 20.1917H75.5465V22.4392C75.5465 24.1269 74.457 24.7828 72.9643 24.7828C71.4472 24.7828 70.6806 24.1269 70.3982 23.3831L67.2192 23.807C67.6307 25.7426 69.5429 27.2302 72.8835 27.2302ZM72.9564 19.6318C71.2698 19.6318 70.3499 18.3041 70.3499 16.1846C70.3499 14.097 71.2538 12.6333 72.9564 12.6333C74.6265 12.6333 75.5626 14.033 75.5626 16.1846C75.5626 18.3521 74.6104 19.6318 72.9564 19.6318Z" fill="#0C2D06"/>
<path d="M86.5962 22.6072C90.3565 22.6072 92.6967 20.0557 92.6967 16.2726C92.6967 12.4653 90.3565 9.92188 86.5962 9.92188C82.8359 9.92188 80.4961 12.4653 80.4961 16.2726C80.4961 20.0557 82.8359 22.6072 86.5962 22.6072ZM86.6123 19.9678C84.8775 19.9678 83.99 18.3921 83.99 16.2486C83.99 14.105 84.8775 12.5213 86.6123 12.5213C88.315 12.5213 89.2027 14.105 89.2027 16.2486C89.2027 18.3921 88.315 19.9678 86.6123 19.9678Z" fill="#0C2D06"/>
<path d="M94.2521 22.3671H97.6896V10.0817H94.2521V22.3671ZM95.9791 8.49806C97.0038 8.49806 97.843 7.72223 97.843 6.77043C97.843 5.82661 97.0038 5.05078 95.9791 5.05078C94.9622 5.05078 94.123 5.82661 94.123 6.77043C94.123 7.72223 94.9622 8.49806 95.9791 8.49806Z" fill="#0C2D06"/>
<path d="M99.7598 26.9743H103.197V20.3997H103.302C103.778 21.4235 104.819 22.5672 106.82 22.5672C109.645 22.5672 111.847 20.3517 111.847 16.2406C111.847 12.0174 109.548 9.92188 106.828 9.92188C104.755 9.92188 103.762 11.1456 103.302 12.1454H103.149V10.0819H99.7598V26.9743ZM103.125 16.2246C103.125 14.033 104.061 12.6333 105.731 12.6333C107.434 12.6333 108.337 14.097 108.337 16.2246C108.337 18.3681 107.417 19.8558 105.731 19.8558C104.077 19.8558 103.125 18.4161 103.125 16.2246Z" fill="#0C2D06"/>
<path d="M123.771 13.5851C123.465 11.3216 121.625 9.92188 118.494 9.92188C115.323 9.92188 113.233 11.3776 113.241 13.7451C113.233 15.5847 114.403 16.7765 116.824 17.2563L118.97 17.6803C120.051 17.8962 120.544 18.2881 120.56 18.904C120.544 19.6318 119.745 20.1517 118.543 20.1517C117.316 20.1517 116.501 19.6318 116.291 18.6321L112.91 18.808C113.233 21.1595 115.25 22.6072 118.534 22.6072C121.746 22.6072 124.046 20.9835 124.054 18.5601C124.046 16.7844 122.876 15.7207 120.471 15.2328L118.228 14.7849C117.074 14.5369 116.646 14.145 116.654 13.5531C116.646 12.8173 117.485 12.3374 118.55 12.3374C119.745 12.3374 120.455 12.9852 120.624 13.7771L123.771 13.5851Z" fill="#0C2D06"/>
<path d="M133.483 17.1365C133.492 18.7842 132.354 19.648 131.119 19.648C129.82 19.648 128.981 18.7442 128.973 17.2965V10.082H125.535V17.9044C125.543 20.7758 127.238 22.5274 129.731 22.5274C131.595 22.5274 132.935 21.5756 133.492 20.1359H133.621V22.3674H136.921V10.082H133.483V17.1365Z" fill="#0C2D06"/>
<path d="M138.988 22.3673H142.426V14.9928C142.426 13.6331 143.297 12.7293 144.443 12.7293C145.573 12.7293 146.332 13.4971 146.332 14.7049V22.3673H149.664V14.8649C149.664 13.5931 150.398 12.7293 151.649 12.7293C152.746 12.7293 153.569 13.4092 153.569 14.7769V22.3673H156.999V14.105C156.999 11.4416 155.401 9.92188 153.093 9.92188C151.278 9.92188 149.866 10.8417 149.357 12.2494H149.228C148.833 10.8257 147.566 9.92188 145.864 9.92188C144.193 9.92188 142.926 10.8017 142.41 12.2494H142.264V10.0819H138.988V22.3673Z" fill="#0C2D06"/>
</mask>
<g mask="url(#mask1_1061_357)">
<rect opacity="0.4" x="-675" width="1280" height="32" fill="#0D0E10"/>
</g>
</g>
</svg>
