<svg width="64" height="64" viewBox="0 0 64 64" fill="none" xmlns="http://www.w3.org/2000/svg">
<path d="M42.6668 44.6668H21.3335C20.2402 44.6668 19.3335 43.7602 19.3335 42.6668V21.3335C19.3335 20.2402 20.2402 19.3335 21.3335 19.3335H42.6668C43.7602 19.3335 44.6668 20.2402 44.6668 21.3335V42.6668C44.6668 43.7602 43.7602 44.6668 42.6668 44.6668ZM23.3335 40.6668H40.6668V23.3335H23.3335V40.6668Z" fill="white"/>
<path d="M13.3335 60.6665C7.8135 60.6665 3.3335 56.1865 3.3335 50.6665C3.3335 45.1465 7.8135 40.6665 13.3335 40.6665H21.3335C22.4268 40.6665 23.3335 41.5732 23.3335 42.6665V50.6665C23.3335 56.1865 18.8535 60.6665 13.3335 60.6665ZM13.3335 44.6665C10.0268 44.6665 7.3335 47.3598 7.3335 50.6665C7.3335 53.9732 10.0268 56.6665 13.3335 56.6665C16.6402 56.6665 19.3335 53.9732 19.3335 50.6665V44.6665H13.3335Z" fill="white"/>
<path d="M21.3335 23.3335H13.3335C7.8135 23.3335 3.3335 18.8535 3.3335 13.3335C3.3335 7.8135 7.8135 3.3335 13.3335 3.3335C18.8535 3.3335 23.3335 7.8135 23.3335 13.3335V21.3335C23.3335 22.4268 22.4268 23.3335 21.3335 23.3335ZM13.3335 7.3335C10.0268 7.3335 7.3335 10.0268 7.3335 13.3335C7.3335 16.6402 10.0268 19.3335 13.3335 19.3335H19.3335V13.3335C19.3335 10.0268 16.6402 7.3335 13.3335 7.3335Z" fill="white"/>
<path d="M50.6665 23.3335H42.6665C41.5732 23.3335 40.6665 22.4268 40.6665 21.3335V13.3335C40.6665 7.8135 45.1465 3.3335 50.6665 3.3335C56.1865 3.3335 60.6665 7.8135 60.6665 13.3335C60.6665 18.8535 56.1865 23.3335 50.6665 23.3335ZM44.6665 19.3335H50.6665C53.9732 19.3335 56.6665 16.6402 56.6665 13.3335C56.6665 10.0268 53.9732 7.3335 50.6665 7.3335C47.3598 7.3335 44.6665 10.0268 44.6665 13.3335V19.3335Z" fill="white"/>
<path d="M50.6665 60.6665C45.1465 60.6665 40.6665 56.1865 40.6665 50.6665V42.6665C40.6665 41.5732 41.5732 40.6665 42.6665 40.6665H50.6665C56.1865 40.6665 60.6665 45.1465 60.6665 50.6665C60.6665 56.1865 56.1865 60.6665 50.6665 60.6665ZM44.6665 44.6665V50.6665C44.6665 53.9732 47.3598 56.6665 50.6665 56.6665C53.9732 56.6665 56.6665 53.9732 56.6665 50.6665C56.6665 47.3598 53.9732 44.6665 50.6665 44.6665H44.6665Z" fill="white"/>
</svg>
