<svg width="64" height="64" viewBox="0 0 64 64" fill="none" xmlns="http://www.w3.org/2000/svg">
<path d="M32.0019 27.4136C29.2819 27.4136 26.562 26.9336 23.9753 26.0001C22.9353 25.6268 22.402 24.4801 22.7753 23.4401C23.1753 22.4001 24.322 21.8668 25.362 22.2401C29.6552 23.7868 34.3752 23.7868 38.6685 22.2401C39.7085 21.8668 40.8552 22.4001 41.2285 23.4401C41.6019 24.4801 41.0685 25.6268 40.0285 26.0001C37.4419 26.9336 34.7219 27.4136 32.0019 27.4136Z" fill="white"/>
<path d="M50.854 60.6668C49.494 60.6668 48.0006 60.2668 46.5606 59.4402L33.5473 52.2135C32.774 51.7868 31.254 51.7868 30.4806 52.2135L17.4673 59.4402C14.8273 60.9068 12.134 61.0668 10.0807 59.8402C8.02734 58.6402 6.854 56.2135 6.854 53.2002V15.6268C6.854 8.8535 12.374 3.3335 19.1473 3.3335H44.8806C51.654 3.3335 57.174 8.8535 57.174 15.6268V53.2002C57.174 56.2135 56.0006 58.6402 53.9473 59.8402C53.014 60.4002 51.9473 60.6668 50.854 60.6668ZM32.0006 47.8935C33.254 47.8935 34.4806 48.1602 35.4673 48.7202L48.4806 55.9468C49.8406 56.7202 51.094 56.8802 51.894 56.4002C52.694 55.9202 53.1473 54.7735 53.1473 53.2002V15.6268C53.1473 11.0668 49.414 7.3335 44.854 7.3335H19.1473C14.5873 7.3335 10.854 11.0668 10.854 15.6268V53.2002C10.854 54.7735 11.3073 55.9468 12.1073 56.4002C12.9073 56.8535 14.134 56.7202 15.5207 55.9468L28.534 48.7202C29.5206 48.1602 30.7473 47.8935 32.0006 47.8935Z" fill="white"/>
<path d="M50.854 60.6668C49.494 60.6668 48.0006 60.2668 46.5606 59.4402L33.5473 52.2135C32.774 51.7868 31.254 51.7868 30.4806 52.2135L17.4673 59.4402C14.8273 60.9068 12.134 61.0668 10.0807 59.8402C8.02734 58.6402 6.854 56.2135 6.854 53.2002V15.6268C6.854 8.8535 12.374 3.3335 19.1473 3.3335H44.8806C51.654 3.3335 57.174 8.8535 57.174 15.6268V53.2002C57.174 56.2135 56.0006 58.6402 53.9473 59.8402C53.014 60.4002 51.9473 60.6668 50.854 60.6668ZM32.0006 47.8935C33.254 47.8935 34.4806 48.1602 35.4673 48.7202L48.4806 55.9468C49.8406 56.7202 51.094 56.8802 51.894 56.4002C52.694 55.9202 53.1473 54.7735 53.1473 53.2002V15.6268C53.1473 11.0668 49.414 7.3335 44.854 7.3335H19.1473C14.5873 7.3335 10.854 11.0668 10.854 15.6268V53.2002C10.854 54.7735 11.3073 55.9468 12.1073 56.4002C12.9073 56.8535 14.134 56.7202 15.5207 55.9468L28.534 48.7202C29.5206 48.1602 30.7473 47.8935 32.0006 47.8935Z" fill="white"/>
</svg>
