<svg width="64" height="64" viewBox="0 0 64 64" fill="none" xmlns="http://www.w3.org/2000/svg">
<path d="M46.8268 47.9202H17.1735C6.56016 47.9202 3.3335 44.6935 3.3335 34.0802V17.1735C3.3335 6.56016 6.56016 3.3335 17.1735 3.3335H46.8002C57.4135 3.3335 60.6402 6.56016 60.6402 17.1735V34.0535C60.6668 44.6935 57.4402 47.9202 46.8268 47.9202ZM17.1735 7.3335C8.80016 7.3335 7.3335 8.80016 7.3335 17.1735V34.0535C7.3335 42.4268 8.80016 43.8935 17.1735 43.8935H46.8002C55.1735 43.8935 56.6402 42.4268 56.6402 34.0535V17.1735C56.6402 8.80016 55.1735 7.3335 46.8002 7.3335H17.1735Z" fill="white"/>
<path d="M32 60.6671C30.9067 60.6671 30 59.7604 30 58.6671V45.9204C30 44.8271 30.9067 43.9204 32 43.9204C33.0933 43.9204 34 44.8271 34 45.9204V58.6671C34 59.7604 33.0933 60.6671 32 60.6671Z" fill="white"/>
<path d="M58.6668 36.6665H5.3335C4.24016 36.6665 3.3335 35.7598 3.3335 34.6665C3.3335 33.5732 4.24016 32.6665 5.3335 32.6665H58.6668C59.7602 32.6665 60.6668 33.5732 60.6668 34.6665C60.6668 35.7598 59.7602 36.6665 58.6668 36.6665Z" fill="white"/>
<path d="M44 60.6665H20C18.9067 60.6665 18 59.7598 18 58.6665C18 57.5732 18.9067 56.6665 20 56.6665H44C45.0933 56.6665 46 57.5732 46 58.6665C46 59.7598 45.0933 60.6665 44 60.6665Z" fill="white"/>
</svg>
