<svg width="64" height="64" viewBox="0 0 64 64" fill="none" xmlns="http://www.w3.org/2000/svg">
<path d="M31.9995 60.6668C30.3995 60.6668 28.8261 60.2934 27.5461 59.5734L14.9327 52.2934C9.70604 48.7734 9.35938 48.1334 9.35938 42.6134V29.3868C9.35938 23.8667 9.70604 23.2267 14.826 19.7867L27.5728 12.4267C30.1061 10.96 33.9195 10.96 36.4528 12.4267L49.0661 19.7067C54.2928 23.2267 54.6395 23.8667 54.6395 29.3868V42.6134C54.6395 48.1334 54.2928 48.7734 49.1728 52.2134L36.4261 59.5734C35.1728 60.3201 33.5728 60.6668 31.9995 60.6668ZM31.9995 15.3333C31.0928 15.3333 30.1861 15.52 29.5461 15.8933L16.9327 23.1733C13.3594 25.6 13.3594 25.6 13.3594 29.3868V42.6134C13.3594 46.4001 13.3594 46.4001 17.066 48.9068L29.5728 56.1068C30.8528 56.8534 33.1728 56.8534 34.4528 56.1068L47.0661 48.8268C50.6395 46.4001 50.6395 46.4001 50.6395 42.6134V29.3868C50.6395 25.6 50.6395 25.6 46.9328 23.0933L34.4261 15.8933C33.8128 15.52 32.9061 15.3333 31.9995 15.3333Z" fill="white"/>
<path d="M46.6668 22.3468C45.5735 22.3468 44.6668 21.4402 44.6668 20.3468V13.3335C44.6668 9.12016 42.8802 7.3335 38.6668 7.3335H25.3335C21.1202 7.3335 19.3335 9.12016 19.3335 13.3335V20.1602C19.3335 21.2535 18.4268 22.1602 17.3335 22.1602C16.2402 22.1602 15.3335 21.2802 15.3335 20.1602V13.3335C15.3335 6.88016 18.8802 3.3335 25.3335 3.3335H38.6668C45.1202 3.3335 48.6668 6.88016 48.6668 13.3335V20.3468C48.6668 21.4402 47.7602 22.3468 46.6668 22.3468Z" fill="white"/>
<path d="M36.3474 47.0136C35.7874 47.0136 35.2007 46.9069 34.614 46.6669L32.0007 45.6536L29.3874 46.6936C27.974 47.2536 26.5341 47.1203 25.4675 46.3469C24.4008 45.5736 23.8408 44.2403 23.9208 42.7203L24.0808 39.9203L22.2941 37.7603C21.3341 36.5603 21.0141 35.1736 21.4408 33.8936C21.8408 32.6403 22.9341 31.6803 24.4008 31.3069L27.1207 30.6136L28.6407 28.2403C30.2674 25.6803 33.7607 25.6803 35.3874 28.2403L36.9074 30.6136L39.6274 31.3069C41.094 31.6803 42.1874 32.6403 42.5874 33.8936C42.9874 35.1469 42.6674 36.5603 41.7074 37.7336L39.9207 39.8936L40.0807 42.6936C40.1607 44.2136 39.6007 45.5203 38.534 46.3203C37.894 46.7736 37.1474 47.0136 36.3474 47.0136ZM25.3875 35.2003L27.174 37.3603C27.7874 38.0803 28.134 39.2269 28.0807 40.1603L27.9207 42.9603L30.534 41.9203C31.414 41.5736 32.5874 41.5736 33.4674 41.9203L36.0807 42.9603L35.9207 40.1603C35.8674 39.2269 36.214 38.1069 36.8274 37.3603L38.614 35.2003L35.894 34.5069C34.9874 34.2669 34.0274 33.5736 33.5207 32.8003L32.0274 30.4536L30.5074 32.8003C30.0007 33.6003 29.0407 34.2936 28.134 34.5336L25.3875 35.2003Z" fill="white"/>
</svg>
