<svg width="64" height="64" viewBox="0 0 64 64" fill="none" xmlns="http://www.w3.org/2000/svg">
<path d="M31.922 60.6668C16.1354 60.6668 3.25537 47.8135 3.25537 32.0002C3.25537 16.1868 16.1354 3.3335 31.922 3.3335C47.7087 3.3335 60.5887 16.1868 60.5887 32.0002C60.5887 47.8135 47.7354 60.6668 31.922 60.6668ZM31.922 7.3335C18.322 7.3335 7.25537 18.4002 7.25537 32.0002C7.25537 45.6002 18.322 56.6668 31.922 56.6668C45.522 56.6668 56.5887 45.6002 56.5887 32.0002C56.5887 18.4002 45.522 7.3335 31.922 7.3335Z" fill="white"/>
<path d="M31.9999 51.3331C26.2665 51.3331 20.8798 48.5331 17.5998 43.8131C16.9598 42.9064 17.1998 41.6531 18.1065 41.0398C19.0132 40.3998 20.2665 40.6398 20.8798 41.5464C23.4132 45.1731 27.5732 47.3598 31.9999 47.3598C36.4266 47.3598 40.5866 45.1998 43.1199 41.5464C43.7599 40.6398 44.9866 40.4264 45.8932 41.0398C46.7999 41.6798 47.0132 42.9064 46.3999 43.8131C43.1199 48.5331 37.7332 51.3331 31.9999 51.3331Z" fill="white"/>
</svg>
