<svg width="64" height="64" viewBox="0 0 64 64" fill="none" xmlns="http://www.w3.org/2000/svg">
<path d="M32.0002 60.6668C16.1868 60.6668 3.3335 47.8135 3.3335 32.0002C3.3335 16.1868 16.1868 3.3335 32.0002 3.3335C47.8135 3.3335 60.6668 16.1868 60.6668 32.0002C60.6668 47.8135 47.8135 60.6668 32.0002 60.6668ZM32.0002 7.3335C18.4002 7.3335 7.3335 18.4002 7.3335 32.0002C7.3335 45.6002 18.4002 56.6668 32.0002 56.6668C45.6002 56.6668 56.6668 45.6002 56.6668 32.0002C56.6668 18.4002 45.6002 7.3335 32.0002 7.3335Z" fill="white"/>
<path d="M24.0006 58H21.334C20.2406 58 19.334 57.0933 19.334 56C19.334 54.9067 20.1873 54.0267 21.2806 54C17.094 39.7067 17.094 24.2933 21.2806 10C20.1873 9.97333 19.334 9.09333 19.334 8C19.334 6.90667 20.2406 6 21.334 6H24.0006C24.6406 6 25.254 6.32 25.6273 6.82667C26.0006 7.36 26.1073 8.02667 25.894 8.64C20.8806 23.7067 20.8806 40.2933 25.894 55.3867C26.1073 56 26.0006 56.6667 25.6273 57.2C25.254 57.68 24.6406 58 24.0006 58Z" fill="white"/>
<path d="M40.0009 58.0007C39.7876 58.0007 39.5742 57.974 39.3609 57.894C38.3209 57.5474 37.7342 56.4007 38.1076 55.3607C43.1209 40.294 43.1209 23.7073 38.1076 8.61398C37.7609 7.57398 38.3209 6.42731 39.3609 6.08064C40.4276 5.73398 41.5476 6.29398 41.8942 7.33398C47.2009 23.2273 47.2009 40.7207 41.8942 56.5874C41.6276 57.4674 40.8276 58.0007 40.0009 58.0007Z" fill="white"/>
<path d="M32 45.8663C24.56 45.8663 17.1467 44.8263 10 42.7196C9.97333 43.7863 9.09333 44.6663 8 44.6663C6.90667 44.6663 6 43.7596 6 42.6663V39.9996C6 39.3596 6.32 38.7463 6.82667 38.373C7.36 37.9996 8.02667 37.893 8.64 38.1063C23.7067 43.1196 40.32 43.1196 55.3867 38.1063C56 37.893 56.6667 37.9996 57.2 38.373C57.7333 38.7463 58.0267 39.3596 58.0267 39.9996V42.6663C58.0267 43.7596 57.12 44.6663 56.0267 44.6663C54.9333 44.6663 54.0533 43.813 54.0267 42.7196C46.8533 44.8263 39.44 45.8663 32 45.8663Z" fill="white"/>
<path d="M55.9996 25.9998C55.7863 25.9998 55.573 25.9731 55.3596 25.8931C40.293 20.8798 23.6796 20.8798 8.61292 25.8931C7.54625 26.2398 6.42625 25.6798 6.07959 24.6398C5.75959 23.5731 6.31959 22.4531 7.35959 22.1065C23.2529 16.7998 40.7463 16.7998 56.613 22.1065C57.653 22.4531 58.2396 23.5998 57.8663 24.6398C57.6263 25.4665 56.8263 25.9998 55.9996 25.9998Z" fill="white"/>
</svg>
