<svg width="79" height="16" viewBox="0 0 79 16" fill="none" xmlns="http://www.w3.org/2000/svg">
<path d="M0 15.5941V0H3.41789V15.5941H0ZM2.99065 15.5941V12.6889H9.80507V15.5941H2.99065ZM2.99065 9.1215V6.21629H9.31375V9.1215H2.99065ZM2.99065 2.90521V0H9.65554V2.90521H2.99065Z" fill="#121722"/>
<path d="M12.6409 15.5941V0H16.0801V15.5941H12.6409ZM11.2523 2.52069V0H16.0801V2.52069H11.2523Z" fill="#121722"/>
<path d="M24.5913 16C23.5944 16 22.7114 15.8291 21.9424 15.4873C21.1876 15.1455 20.5539 14.6898 20.0412 14.1202C19.5428 13.5363 19.1583 12.8883 18.8877 12.1762C18.6313 11.4499 18.5032 10.7094 18.5032 9.95461V9.52737C18.5032 8.7441 18.6313 7.99644 18.8877 7.28438C19.1583 6.55808 19.5428 5.9101 20.0412 5.34045C20.5397 4.77081 21.1592 4.32221 21.8997 3.99466C22.6545 3.65287 23.509 3.48198 24.4631 3.48198C25.7163 3.48198 26.7702 3.7668 27.6247 4.33645C28.4934 4.89186 29.1556 5.62528 29.6113 6.53672C30.067 7.43391 30.2949 8.41656 30.2949 9.48465V10.6382H19.9344V8.69426H28.2228L27.112 9.59146C27.112 8.89364 27.0123 8.2955 26.8129 7.79706C26.6135 7.29862 26.3145 6.92123 25.9157 6.66489C25.5312 6.3943 25.047 6.25901 24.4631 6.25901C23.865 6.25901 23.3594 6.3943 22.9464 6.66489C22.5334 6.93547 22.2201 7.33422 22.0065 7.86115C21.7929 8.37383 21.6861 9.00757 21.6861 9.76235C21.6861 10.4602 21.7858 11.0725 21.9851 11.5995C22.1845 12.1121 22.4978 12.5109 22.9251 12.7957C23.3523 13.0806 23.9077 13.223 24.5913 13.223C25.2179 13.223 25.7306 13.1019 26.1293 12.8598C26.5281 12.6177 26.7987 12.3186 26.9411 11.9626H30.0813C29.9104 12.7459 29.5757 13.4437 29.0773 14.0561C28.5788 14.6684 27.9522 15.1455 27.1974 15.4873C26.4426 15.8291 25.5739 16 24.5913 16Z" fill="#121722"/>
<path d="M34.7198 15.5941L31.2165 3.88785H34.7411L38.0309 15.5941H34.7198ZM35.7879 15.5941V12.753H39.2271V15.5941H35.7879ZM37.0482 15.5941L39.8894 3.88785H43.1791L40.1457 15.5941H37.0482Z" fill="#121722"/>
<path d="M52.1055 15.5941V12.1335H51.5287V8.37383C51.5287 7.7757 51.3863 7.3271 51.1015 7.02804C50.8166 6.72897 50.3609 6.57944 49.7343 6.57944C49.421 6.57944 49.008 6.58656 48.4953 6.6008C47.9826 6.61504 47.4557 6.6364 46.9145 6.66489C46.3734 6.69337 45.8821 6.72185 45.4406 6.75033V3.86649C45.7681 3.83801 46.1526 3.80952 46.5941 3.78104C47.0356 3.75256 47.4913 3.7312 47.9613 3.71695C48.4312 3.70271 48.8727 3.69559 49.2857 3.69559C50.482 3.69559 51.486 3.86649 52.2977 4.20828C53.1237 4.55007 53.7503 5.06987 54.1776 5.76769C54.6048 6.45127 54.8184 7.33422 54.8184 8.41656V15.5941H52.1055ZM48.3672 15.8932C47.5269 15.8932 46.7864 15.7437 46.1455 15.4446C45.5189 15.1455 45.0276 14.7183 44.6716 14.1629C44.3155 13.5932 44.1375 12.9168 44.1375 12.1335C44.1375 11.279 44.3582 10.5812 44.7997 10.0401C45.2412 9.48465 45.8607 9.07877 46.6582 8.82243C47.4557 8.55185 48.3743 8.41656 49.4139 8.41656H51.9132V10.3178H49.3925C48.7944 10.3178 48.3316 10.4673 48.004 10.7664C47.6907 11.0512 47.534 11.4428 47.534 11.9413C47.534 12.4112 47.6907 12.7957 48.004 13.0948C48.3316 13.3796 48.7944 13.522 49.3925 13.522C49.777 13.522 50.1188 13.4579 50.4179 13.3298C50.7312 13.1874 50.9875 12.9524 51.1869 12.6248C51.3863 12.2973 51.5002 11.8416 51.5287 11.2577L52.3405 12.1121C52.2692 12.9239 52.0699 13.6075 51.7423 14.1629C51.429 14.7183 50.9875 15.1455 50.4179 15.4446C49.8625 15.7437 49.1789 15.8932 48.3672 15.8932Z" fill="#121722"/>
<path d="M63.0374 15.7437C61.8554 15.7437 60.9012 15.6012 60.1749 15.3164C59.4486 15.0174 58.9145 14.526 58.5728 13.8425C58.2452 13.1446 58.0814 12.2047 58.0814 11.0227V0.726301H61.2644V11.1509C61.2644 11.7063 61.4068 12.1335 61.6916 12.4326C61.9906 12.7174 62.4108 12.8598 62.9519 12.8598H64.6822V15.7437H63.0374ZM56.3084 6.38718V3.88785H64.6822V6.38718H56.3084Z" fill="#121722"/>
<path d="M72.3007 16C71.3038 16 70.4209 15.8291 69.6519 15.4873C68.8971 15.1455 68.2633 14.6898 67.7507 14.1202C67.2522 13.5363 66.8677 12.8883 66.5971 12.1762C66.3408 11.4499 66.2126 10.7094 66.2126 9.95461V9.52737C66.2126 8.7441 66.3408 7.99644 66.5971 7.28438C66.8677 6.55808 67.2522 5.9101 67.7507 5.34045C68.2491 4.77081 68.8686 4.32221 69.6091 3.99466C70.3639 3.65287 71.2184 3.48198 72.1726 3.48198C73.4258 3.48198 74.4796 3.7668 75.3341 4.33645C76.2028 4.89186 76.865 5.62528 77.3208 6.53672C77.7765 7.43391 78.0043 8.41656 78.0043 9.48465V10.6382H67.6439V8.69426H75.9322L74.8214 9.59146C74.8214 8.89364 74.7217 8.2955 74.5224 7.79706C74.323 7.29862 74.0239 6.92123 73.6252 6.66489C73.2406 6.3943 72.7564 6.25901 72.1726 6.25901C71.5744 6.25901 71.0689 6.3943 70.6559 6.66489C70.2429 6.93547 69.9296 7.33422 69.716 7.86115C69.5023 8.37383 69.3955 9.00757 69.3955 9.76235C69.3955 10.4602 69.4952 11.0725 69.6946 11.5995C69.894 12.1121 70.2073 12.5109 70.6345 12.7957C71.0617 13.0806 71.6171 13.223 72.3007 13.223C72.9273 13.223 73.44 13.1019 73.8388 12.8598C74.2375 12.6177 74.5081 12.3186 74.6505 11.9626H77.7907C77.6198 12.7459 77.2851 13.4437 76.7867 14.0561C76.2883 14.6684 75.6617 15.1455 74.9069 15.4873C74.1521 15.8291 73.2834 16 72.3007 16Z" fill="#121722"/>
</svg>
