<svg width="32" height="32" viewBox="0 0 32 32" fill="none" xmlns="http://www.w3.org/2000/svg">
<path d="M22.666 28.3332H9.33268C4.46602 28.3332 1.66602 25.5332 1.66602 20.6665V11.3332C1.66602 6.4665 4.46602 3.6665 9.33268 3.6665H22.666C27.5327 3.6665 30.3327 6.4665 30.3327 11.3332V20.6665C30.3327 25.5332 27.5327 28.3332 22.666 28.3332ZM9.33268 5.6665C5.51935 5.6665 3.66602 7.51984 3.66602 11.3332V20.6665C3.66602 24.4798 5.51935 26.3332 9.33268 26.3332H22.666C26.4793 26.3332 28.3327 24.4798 28.3327 20.6665V11.3332C28.3327 7.51984 26.4793 5.6665 22.666 5.6665H9.33268Z" fill="#121722"/>
<path d="M15.9984 17.16C14.8784 17.16 13.7451 16.8133 12.8784 16.1067L8.70507 12.7733C8.2784 12.4266 8.19841 11.8 8.54507 11.3733C8.89175 10.9466 9.51841 10.8666 9.94508 11.2133L14.1184 14.5467C15.1317 15.36 16.8517 15.36 17.8651 14.5467L22.0384 11.2133C22.4651 10.8666 23.1051 10.9333 23.4384 11.3733C23.7851 11.8 23.7184 12.44 23.2784 12.7733L19.1051 16.1067C18.2517 16.8133 17.1184 17.16 15.9984 17.16Z" fill="#121722"/>
</svg>
